<?xml version="1.0" standalone="no"?>
<!DOCTYPE svg PUBLIC "-//W3C//DTD SVG 20010904//EN"
 "http://www.w3.org/TR/2001/REC-SVG-20010904/DTD/svg10.dtd">
<svg version="1.0" xmlns="http://www.w3.org/2000/svg"
 width="16.000000pt" height="16.000000pt" viewBox="0 0 16.000000 16.000000"
 preserveAspectRatio="xMidYMid meet">
<metadata>
Created by potrace 1.11, written by Peter Selinger 2001-2013
</metadata>
<g transform="translate(0.000000,16.000000) scale(0.006154,-0.006154)"
fill="#000000" stroke="none">
<path d="M1169 2381 c-59 -59 -22 -150 62 -151 57 0 96 43 90 100 -8 75 -97
105 -152 51z"/>
<path d="M1407 2372 c-32 -19 -43 -63 -27 -102 28 -67 134 -52 146 21 11 68
-60 116 -119 81z"/>
<path d="M992 2373 c-24 -5 -62 -56 -62 -85 0 -45 37 -85 85 -92 33 -5 83 25
91 53 12 45 12 48 -3 79 -13 26 -60 56 -82 51 -3 -1 -16 -4 -29 -6z"/>
<path d="M1596 2308 c-39 -35 -39 -77 0 -113 44 -41 106 -26 124 31 26 79 -62
137 -124 82z"/>
<path d="M784 2288 c-39 -18 -54 -75 -33 -121 28 -61 130 -61 158 0 39 85 -41
162 -125 121z"/>
<path d="M1805 2240 c-36 -14 -59 -49 -59 -90 1 -90 120 -121 166 -42 41 71
-32 160 -107 132z"/>
<path d="M1314 2210 c-46 -18 -68 -85 -44 -131 11 -20 57 -46 78 -43 6 1 19 2
27 3 9 0 27 13 40 27 43 47 29 110 -32 142 -25 14 -40 14 -69 2z"/>
<path d="M1110 2203 c-44 -17 -69 -78 -50 -122 32 -78 157 -66 173 16 13 71
-57 131 -123 106z"/>
<path d="M582 2175 c-40 -33 -49 -76 -27 -125 30 -66 111 -82 167 -31 28 25
32 35 32 76 0 41 -4 51 -32 76 -43 38 -98 40 -140 4z"/>
<path d="M1503 2164 c-46 -23 -58 -82 -26 -132 14 -23 14 -23 -8 -12 -17 10
-31 10 -61 1 -95 -29 -102 -152 -11 -200 52 -27 114 1 138 62 15 37 15 42 -2
76 l-18 36 39 1 c28 1 45 8 58 24 68 84 -13 190 -109 144z"/>
<path d="M904 2138 c-48 -23 -58 -98 -19 -141 59 -63 155 -20 155 69 0 36 -51
84 -87 83 -15 0 -38 -5 -49 -11z"/>
<path d="M1701 2079 c-62 -25 -80 -96 -37 -146 33 -39 99 -38 133 1 32 37 31
87 -2 121 -14 14 -30 25 -35 25 -4 0 -14 2 -22 4 -7 3 -24 0 -37 -5z"/>
<path d="M473 2033 c-54 -11 -82 -98 -45 -140 20 -23 52 -40 70 -37 6 1 19 2
27 3 9 0 27 13 40 27 62 67 0 166 -92 147z"/>
<path d="M750 2023 c-38 -14 -59 -67 -44 -108 18 -45 111 -48 134 -5 34 63
-25 137 -90 113z"/>
<path d="M1194 2002 c-45 -31 -48 -90 -5 -123 28 -22 74 -20 98 4 44 43 10
127 -50 127 -18 0 -37 -4 -43 -8z"/>
<path d="M978 1957 c-69 -58 -31 -157 61 -157 45 0 92 52 85 95 -12 76 -90
109 -146 62z"/>
<path d="M1584 1916 c-51 -23 -66 -90 -30 -135 6 -8 26 -20 44 -28 28 -12 37
-11 67 3 65 31 69 120 6 157 -34 20 -46 21 -87 3z"/>
<path d="M610 1882 c-47 -16 -68 -68 -45 -112 34 -65 127 -48 141 25 10 51
-47 103 -96 87z"/>
<path d="M818 1855 c-69 -39 -65 -131 8 -161 88 -37 165 69 102 140 -29 32
-74 41 -110 21z"/>
<path d="M340 1848 c-37 -20 -55 -80 -35 -118 28 -54 94 -67 140 -27 40 34 40
94 -1 135 -20 19 -75 25 -104 10z"/>
<path d="M478 1705 c-47 -26 -50 -104 -5 -145 24 -23 83 -26 108 -7 95 73 3
209 -103 152z"/>
<path d="M689 1687 c-44 -30 -55 -66 -34 -111 36 -76 135 -71 165 9 19 51 -8
97 -68 115 -25 7 -38 4 -63 -13z"/>
<path d="M267 1653 c-22 -6 -47 -53 -47 -88 0 -34 50 -85 84 -85 39 0 73 20
89 52 18 36 12 70 -19 103 -22 24 -59 31 -107 18z"/>
<path d="M1784 1615 c-107 -47 -90 -201 25 -222 34 -6 33 -5 16 -40 -43 -86
76 -161 135 -85 27 34 25 77 -5 107 -13 14 -31 25 -40 25 -20 0 -19 5 5 38 25
35 32 77 18 110 -13 29 -54 71 -72 73 -6 1 -21 3 -32 4 -12 1 -35 -3 -50 -10z"/>
<path d="M1088 1576 c-32 -32 -39 -65 -22 -104 30 -72 140 -69 164 4 20 61
-13 112 -77 121 -32 4 -43 1 -65 -21z"/>
<path d="M1318 1583 c-48 -30 -49 -117 -3 -147 60 -39 133 -7 142 62 5 36 2
45 -25 72 -35 34 -72 39 -114 13z"/>
<path d="M1533 1576 c-22 -19 -28 -32 -28 -64 0 -56 34 -92 86 -92 92 0 128
124 49 165 -41 21 -75 19 -107 -9z"/>
<path d="M2028 1594 c-29 -9 -60 -70 -53 -104 17 -76 130 -96 165 -29 24 45
19 81 -16 117 -15 15 -69 23 -96 16z"/>
<path d="M2215 1578 c-15 -14 -28 -38 -31 -59 -12 -75 75 -126 141 -83 51 33
49 115 -4 147 -40 23 -75 21 -106 -5z"/>
<path d="M427 1508 c-69 -53 -44 -154 41 -165 36 -5 45 -2 72 25 34 34 37 59
14 107 -20 44 -89 61 -127 33z"/>
<path d="M606 1485 c-37 -34 -37 -96 0 -130 43 -40 110 -32 138 16 53 90 -62
185 -138 114z"/>
<path d="M249 1448 c-59 -22 -77 -96 -35 -145 19 -22 32 -28 66 -28 34 0 47 6
67 30 60 69 -12 174 -98 143z"/>
<path d="M1285 1399 c-11 -6 -27 -24 -34 -41 -26 -59 15 -128 76 -128 11 0 8
-6 -10 -20 -37 -30 -52 -80 -34 -122 19 -45 39 -60 90 -65 36 -4 48 -1 75 22
77 64 34 184 -66 185 l-27 1 26 14 c51 28 55 110 7 147 -25 19 -71 22 -103 7z"/>
<path d="M1651 1391 c-68 -59 -32 -161 57 -161 66 0 108 70 78 129 -28 53 -93
68 -135 32z"/>
<path d="M2038 1394 c-32 -17 -49 -67 -36 -103 24 -66 99 -81 150 -31 26 27
30 36 25 68 -11 69 -77 100 -139 66z"/>
<path d="M1095 1374 c-70 -70 25 -176 100 -112 53 46 27 126 -44 134 -22 3
-37 -3 -56 -22z"/>
<path d="M1485 1388 c-51 -28 -60 -82 -20 -123 43 -42 103 -29 124 28 14 36
-3 81 -35 96 -31 14 -43 14 -69 -1z"/>
<path d="M2234 1388 c-33 -16 -47 -54 -34 -93 21 -63 106 -71 136 -13 16 32
12 71 -10 93 -18 18 -68 26 -92 13z"/>
<path d="M633 1295 c-80 -34 -67 -151 19 -169 30 -6 31 -8 16 -20 -10 -7 -24
-28 -31 -47 -19 -45 -6 -90 35 -124 28 -24 38 -26 76 -21 44 6 91 41 93 69 0
7 2 20 4 30 10 53 -50 117 -111 117 l-29 0 25 20 c20 15 25 28 25 63 0 44 -12
64 -52 85 -27 15 -30 15 -70 -3z"/>
<path d="M427 1287 c-10 -6 -20 -29 -24 -50 -12 -74 69 -116 122 -62 27 26 31
51 14 89 -16 35 -78 48 -112 23z"/>
<path d="M228 1237 c-15 -12 -32 -35 -38 -51 -40 -110 110 -193 186 -103 22
26 25 38 22 78 -3 26 -11 54 -19 62 -43 43 -109 49 -151 14z"/>
<path d="M2193 1214 c-73 -36 -77 -154 -5 -196 66 -39 134 -19 171 49 17 33
13 74 -11 109 -38 55 -93 68 -155 38z"/>
<path d="M1087 1190 c-80 -71 13 -196 105 -142 48 28 61 101 25 137 -41 40
-89 42 -130 5z"/>
<path d="M1575 1210 c-74 -29 -74 -142 -1 -170 57 -21 126 25 126 84 0 60 -71
108 -125 86z"/>
<path d="M1803 1204 c-79 -39 -50 -167 37 -167 55 0 86 26 97 83 5 29 -19 69
-52 84 -40 19 -42 19 -82 0z"/>
<path d="M1984 1175 c-20 -20 -24 -32 -20 -57 15 -94 150 -87 150 7 0 70 -79
101 -130 50z"/>
<path d="M458 1090 c-26 -27 -30 -36 -25 -69 l5 -38 -24 24 c-63 63 -169 3
-149 -85 23 -105 178 -85 178 22 0 26 12 36 19 15 2 -6 24 -13 49 -16 40 -5
49 -2 72 21 45 45 35 115 -20 144 -37 20 -73 14 -105 -18z"/>
<path d="M1743 1025 c-70 -30 -73 -124 -4 -159 15 -8 36 -13 47 -11 10 2 23 4
27 4 4 1 19 13 32 27 68 73 -9 178 -102 139z"/>
<path d="M1954 1010 c-25 -10 -54 -52 -54 -79 0 -55 54 -103 105 -93 38 7 75
47 75 81 0 77 -58 119 -126 91z"/>
<path d="M2137 969 c-30 -17 -47 -63 -37 -98 12 -43 34 -62 80 -68 35 -5 43
-2 70 27 39 42 40 82 1 121 -31 31 -79 38 -114 18z"/>
<path d="M580 933 c-57 -23 -69 -103 -22 -151 7 -8 30 -16 52 -19 34 -5 43 -1
70 25 40 41 41 83 1 123 -29 28 -64 36 -101 22z"/>
<path d="M825 905 c-14 -13 -25 -36 -25 -50 0 -31 41 -75 69 -75 40 0 70 22
77 56 8 44 -1 69 -32 82 -38 18 -62 14 -89 -13z"/>
<path d="M1588 884 c-51 -27 -64 -91 -28 -137 26 -32 62 -41 102 -24 43 18 62
55 54 100 -10 56 -78 88 -128 61z"/>
<path d="M419 848 c-61 -23 -79 -89 -39 -141 54 -68 155 -29 155 60 0 35 -5
48 -25 63 -31 23 -60 29 -91 18z"/>
<path d="M1833 828 c-45 -22 -51 -92 -10 -126 38 -32 98 -18 117 28 12 29 5
73 -14 90 -20 16 -69 21 -93 8z"/>
<path d="M998 814 c-44 -24 -50 -100 -10 -131 37 -28 118 -4 123 37 1 6 2 16
3 23 5 30 -17 66 -46 76 -38 13 -37 14 -70 -5z"/>
<path d="M715 801 c-38 -16 -60 -50 -60 -96 0 -40 -1 -42 -20 -29 -34 24 -83
17 -117 -16 -26 -27 -30 -36 -25 -68 15 -93 137 -112 172 -28 8 19 12 43 8 53
-7 17 -6 17 20 1 56 -37 125 -24 154 30 21 39 21 40 9 89 -13 54 -85 87 -141
64z"/>
<path d="M1415 790 c-31 -12 -46 -35 -47 -70 -3 -85 121 -103 147 -21 11 34
-12 78 -47 90 -17 6 -31 11 -32 10 -1 0 -10 -4 -21 -9z"/>
<path d="M2015 774 c-25 -27 -29 -39 -25 -84 3 -36 44 -70 85 -70 83 0 123
103 62 156 -39 33 -90 32 -122 -2z"/>
<path d="M1200 783 c-43 -17 -66 -97 -37 -134 17 -23 52 -39 82 -39 38 0 85
50 85 90 0 60 -71 106 -130 83z"/>
<path d="M1690 723 c-37 -15 -55 -44 -55 -89 0 -36 5 -49 25 -64 14 -11 36
-20 50 -20 24 -1 24 -1 5 -12 -71 -41 -85 -123 -29 -175 33 -30 65 -37 108
-23 90 29 94 161 6 196 l-38 15 24 24 c30 31 34 67 12 112 -15 31 -73 50 -108
36z"/>
<path d="M893 664 c-68 -34 -61 -140 10 -163 82 -27 152 51 112 125 -10 19
-30 37 -48 43 -37 14 -35 14 -74 -5z"/>
<path d="M1471 636 c-29 -16 -50 -52 -51 -86 -1 -24 -1 -24 -12 -5 -20 35 -38
47 -76 52 -56 6 -97 -30 -97 -87 0 -34 6 -47 28 -66 63 -54 159 -8 148 71 -1
6 6 1 14 -9 8 -11 15 -22 15 -26 0 -3 14 -14 31 -24 43 -26 104 -17 136 20 22
26 26 35 26 69 0 38 -5 48 -32 76 -33 32 -87 39 -130 15z"/>
<path d="M1900 643 c-86 -32 -71 -164 20 -174 33 -3 48 2 74 26 39 36 37 94
-5 129 -29 25 -57 31 -89 19z"/>
<path d="M1084 598 c-48 -23 -57 -94 -19 -133 54 -53 145 -17 145 58 0 66 -65
105 -126 75z"/>
<path d="M715 554 c-63 -33 -74 -96 -26 -145 64 -64 162 -13 148 77 -7 41 -21
57 -63 71 -25 9 -38 8 -59 -3z"/>
<path d="M895 458 c-33 -17 -45 -40 -45 -80 0 -53 35 -88 87 -88 85 1 122 87
64 149 -31 33 -69 40 -106 19z"/>
<path d="M1503 406 c-22 -19 -28 -32 -28 -66 0 -34 6 -47 30 -67 66 -57 175
12 145 92 -25 66 -95 86 -147 41z"/>
<path d="M1103 410 c-52 -21 -63 -104 -20 -147 44 -45 128 -26 147 33 26 77
-50 145 -127 114z"/>
<path d="M1307 399 c-11 -6 -25 -26 -33 -44 -28 -67 28 -134 100 -121 70 13
96 106 42 152 -29 26 -78 31 -109 13z"/>
</g>
</svg>
